<?xml version="1.0" standalone="no"?>
<!DOCTYPE svg PUBLIC "-//W3C//DTD SVG 20010904//EN"
 "http://www.w3.org/TR/2001/REC-SVG-20010904/DTD/svg10.dtd">
<svg version="1.0" xmlns="http://www.w3.org/2000/svg"
 width="512.000000pt" height="512.000000pt" viewBox="0 0 512.000000 512.000000"
 preserveAspectRatio="xMidYMid meet">
<metadata>
Created by potrace 1.14, written by Peter Selinger 2001-2017
</metadata>
<g transform="translate(0.000000,512.000000) scale(0.100000,-0.100000)"
fill="#000000" stroke="none">
<path d="M4025 5105 c-129 -27 -277 -116 -360 -216 -22 -26 -40 -51 -42 -56
-1 -4 25 -26 58 -48 33 -22 66 -44 72 -49 8 -5 34 13 78 55 136 132 303 175
464 118 208 -74 321 -288 269 -511 -8 -32 -24 -78 -35 -101 -18 -35 -204 -317
-232 -352 -4 -5 -40 -57 -79 -115 -39 -58 -108 -159 -154 -226 l-83 -121 75
-53 c42 -29 79 -48 83 -44 12 14 88 124 196 284 54 80 131 192 170 250 136
198 166 245 195 306 171 363 -26 790 -405 877 -77 18 -192 19 -270 2z"/>
<path d="M2980 4108 c-152 -14 -340 -72 -460 -141 -43 -24 -285 -209 -310
-237 -3 -3 -21 -17 -40 -31 -19 -15 -46 -37 -60 -49 -14 -12 -56 -48 -95 -79
-38 -31 -72 -58 -75 -61 -3 -3 -52 -43 -110 -90 -58 -47 -114 -92 -125 -101
-159 -131 -215 -177 -300 -244 -55 -44 -104 -85 -110 -91 -5 -6 -32 -28 -60
-50 -79 -62 -87 -68 -99 -79 -6 -6 -63 -53 -126 -104 -584 -475 -569 -461
-613 -562 -30 -67 -40 -109 -39 -174 1 -121 37 -203 154 -348 46 -56 85 -104
88 -107 3 -3 84 -102 180 -220 96 -118 199 -244 228 -280 30 -36 59 -72 66
-80 19 -25 505 -621 546 -670 20 -25 65 -79 99 -120 110 -132 232 -192 379
-186 101 4 215 50 278 111 14 13 46 39 399 327 165 134 327 266 361 294 33 27
107 87 165 134 57 46 131 107 165 135 33 27 80 66 104 85 24 19 158 129 299
244 141 115 273 223 295 240 134 109 185 162 251 261 62 93 92 153 128 250 54
149 58 175 72 555 3 80 7 195 10 255 24 573 25 603 4 682 -17 67 -65 164 -84
169 -6 2 -47 -53 -93 -122 l-83 -125 14 -57 c43 -168 -33 -332 -188 -408 -53
-25 -71 -29 -145 -28 -70 0 -94 5 -140 27 -91 43 -150 107 -183 197 -27 74
-27 125 -4 227 9 35 53 105 89 140 31 30 124 83 145 83 11 0 197 269 191 276
-3 2 -25 7 -49 10 -24 3 -66 9 -94 14 -27 5 -101 16 -163 25 -62 9 -121 18
-130 19 -9 2 -42 7 -72 11 -30 4 -64 9 -75 11 -11 2 -67 11 -125 20 -58 9
-132 20 -165 25 -33 5 -89 12 -125 15 -36 3 -69 6 -75 8 -5 1 -48 -2 -95 -6z
m-933 -1457 c141 -38 234 -179 238 -361 6 -286 -185 -465 -445 -417 -86 16
-184 95 -224 181 -67 143 -56 343 27 460 90 128 245 180 404 137z m803 11 c0
-4 -136 -253 -160 -292 -5 -8 -43 -76 -84 -150 -40 -74 -105 -191 -143 -260
-39 -69 -83 -147 -98 -175 -131 -236 -235 -422 -251 -449 -10 -16 -24 -19 -92
-20 -77 -1 -80 0 -69 19 10 19 480 867 524 945 11 19 36 64 55 100 45 82 81
148 124 226 l34 60 80 1 c44 0 80 -2 80 -5z m135 -553 c153 -40 249 -200 240
-399 -7 -168 -82 -293 -213 -357 -50 -24 -69 -27 -147 -27 -77 0 -98 4 -145
26 -129 63 -201 183 -207 345 -10 293 204 481 472 412z"/>
<path d="M1885 2488 c-39 -24 -53 -44 -70 -101 -28 -98 -20 -225 20 -293 62
-105 185 -74 214 55 25 113 1 275 -47 324 -23 23 -90 32 -117 15z"/>
<path d="M2840 1952 c-72 -32 -95 -87 -94 -232 0 -98 3 -121 21 -156 39 -74
112 -96 168 -52 41 32 57 82 61 186 6 145 -20 222 -83 248 -35 15 -50 16 -73
6z"/>
</g>
</svg>
